<?xml version="1.0" encoding="utf-8"?>
<!-- Generator: Adobe Illustrator 19.1.0, SVG Export Plug-In . SVG Version: 6.00 Build 0)  -->
<svg version="1.1" id="Layer_1" xmlns="http://www.w3.org/2000/svg" xmlns:xlink="http://www.w3.org/1999/xlink" x="0px" y="0px"
	 viewBox="-387 439 24 24" style="enable-background:new -387 439 24 24;" xml:space="preserve">
<style type="text/css">
	.st0{fill:#ffffff;}
</style>
<g>
	<g>
		<g>
			<path class="st0" d="M-367,449.7c0.5,0,0.9-0.4,0.9-0.9s-0.4-1-0.9-1s-0.9,0.4-0.9,0.9S-367.5,449.7-367,449.7"/>
		</g>
		<g>
			<path class="st0" d="M-367,454.2c0.5,0,0.9-0.4,0.9-0.9s-0.4-1-0.9-1s-0.9,0.4-0.9,0.9S-367.5,454.2-367,454.2"/>
		</g>
		<g>
			<path class="st0" d="M-372.3,449.7c0.5,0,0.9-0.4,0.9-0.9s-0.4-1-0.9-1c-0.5,0-0.9,0.4-0.9,0.9S-372.8,449.7-372.3,449.7"/>
		</g>
		<g>
			<path class="st0" d="M-372.3,454.2c0.5,0,0.9-0.4,0.9-0.9c0-0.5-0.4-0.9-0.9-0.9s-0.9,0.4-0.9,0.9
				C-373.2,453.8-372.8,454.2-372.3,454.2"/>
		</g>
		<g>
			<path class="st0" d="M-377.7,449.7c0.5,0,0.9-0.4,0.9-0.9s-0.4-0.9-0.9-0.9s-0.9,0.4-0.9,0.9S-378.2,449.7-377.7,449.7"/>
		</g>
		<g>
			<path class="st0" d="M-377.7,454.2c0.5,0,0.9-0.4,0.9-0.9s-0.4-0.9-0.9-0.9s-0.9,0.4-0.9,0.9S-378.2,454.2-377.7,454.2"/>
		</g>
		<g>
			<path class="st0" d="M-383,449.7c0.5,0,0.9-0.4,0.9-0.9s-0.4-1-0.9-1s-0.9,0.4-0.9,0.9S-383.5,449.7-383,449.7"/>
		</g>
		<g>
			<path class="st0" d="M-383,454.2c0.5,0,0.9-0.4,0.9-0.9s-0.4-0.9-0.9-0.9s-0.9,0.4-0.9,0.9S-383.5,454.2-383,454.2"/>
		</g>
	</g>
</g>
</svg>
